<?xml version="1.0" standalone="no"?>
<!DOCTYPE svg PUBLIC "-//W3C//DTD SVG 20010904//EN"
 "http://www.w3.org/TR/2001/REC-SVG-20010904/DTD/svg10.dtd">
<svg version="1.0" xmlns="http://www.w3.org/2000/svg"
 width="2655.000000pt" height="391.000000pt" viewBox="0 0 2655.000000 391.000000"
 preserveAspectRatio="xMidYMid meet">
<metadata>
Created by potrace 1.15, written by Peter Selinger 2001-2017
</metadata>
<g transform="translate(0.000000,391.000000) scale(0.100000,-0.100000)"
fill="#000000" stroke="none">
<path d="M5133 3888 c-61 -67 -87 -162 -154 -558 -55 -330 -57 -385 -20 -457
11 -23 39 -57 63 -77 72 -62 102 -66 462 -66 177 0 338 4 359 9 26 6 37 6 37
-3 0 -25 -53 -87 -93 -108 -42 -23 -45 -23 -462 -23 -467 0 -450 -2 -513 69
-59 67 -59 84 -13 359 22 135 41 265 41 288 0 63 -35 126 -88 160 l-46 29
-1924 0 -1924 0 -40 -22 c-21 -12 -53 -44 -72 -73 -636 -965 -711 -1082 -711
-1112 0 -25 16 -51 75 -122 64 -78 79 -91 105 -91 24 1 80 40 265 187 l235
186 5 -1169 5 -1169 23 -38 c13 -20 43 -48 67 -62 l43 -25 600 2 600 3 39 31
c81 66 77 42 83 559 4 334 8 466 17 481 20 36 81 82 120 94 27 8 436 10 1394
8 l1355 -3 42 -28 c23 -15 52 -46 64 -70 23 -41 23 -48 28 -498 l5 -456 28
-41 c15 -23 45 -51 67 -62 38 -19 57 -20 625 -20 520 0 590 2 618 16 46 23 66
43 91 89 20 39 21 52 24 497 l3 457 -333 3 -333 3 -53 29 c-65 36 -107 82
-141 156 l-26 55 0 340 0 340 32 66 c18 35 44 75 58 89 l25 23 0 -339 c0 -283
3 -349 16 -394 29 -98 89 -166 184 -209 43 -20 64 -21 560 -21 496 0 517 1
560 21 95 43 156 112 184 211 15 49 16 151 14 949 l-3 894 -29 58 c-36 70 -89
120 -165 156 l-56 26 -937 -3 -938 -4 0 99 c0 109 -20 219 -48 267 -24 41 -68
47 -99 14z"/>
<path d="M8074 3885 c-34 -53 -46 -120 -54 -310 -6 -138 -12 -203 -25 -237
-23 -65 -94 -141 -163 -175 -50 -25 -69 -28 -184 -31 l-128 -4 0 -199 0 -199
308 0 c347 0 379 5 450 66 24 20 52 54 63 77 37 72 35 127 -20 457 -67 395
-93 491 -154 558 -28 30 -72 29 -93 -3z"/>
<path d="M17523 3449 c-411 -31 -729 -203 -919 -494 -101 -155 -164 -327 -207
-560 -19 -106 -22 -155 -22 -420 0 -328 8 -407 64 -621 74 -281 222 -515 420
-666 140 -106 354 -189 562 -218 120 -17 384 -15 508 4 380 58 654 233 791
507 62 121 81 203 87 361 l6 137 -24 5 c-13 3 -141 17 -284 31 -143 14 -275
28 -292 31 l-33 5 0 -93 c0 -147 -33 -239 -117 -329 -53 -57 -156 -112 -240
-129 -84 -18 -244 -8 -314 19 -214 82 -336 300 -380 680 -16 141 -7 536 16
655 38 206 104 354 200 452 99 100 220 142 378 131 197 -13 316 -97 368 -257
24 -78 34 -220 21 -310 -5 -36 -8 -66 -7 -68 5 -5 666 56 672 62 15 15 24 199
14 296 -50 478 -371 745 -952 790 -146 11 -166 11 -316 -1z"/>
<path d="M26230 3451 c-51 -11 -93 -35 -127 -75 -43 -48 -56 -95 -51 -181 3
-62 8 -80 33 -116 44 -63 111 -94 200 -94 89 0 156 31 200 94 25 36 30 54 33
116 5 86 -8 133 -51 181 -54 63 -151 93 -237 75z m105 -62 c126 -35 165 -213
65 -303 -45 -40 -105 -54 -168 -37 -100 27 -150 145 -103 246 22 49 48 73 98
91 47 16 58 17 108 3z"/>
<path d="M26200 3220 l0 -120 29 0 c28 0 30 2 33 48 l3 47 28 -47 c24 -40 34
-48 58 -48 35 0 35 4 4 54 l-24 39 25 19 c34 27 33 79 -2 107 -21 16 -41 21
-90 21 l-64 0 0 -120z"/>
<path d="M9070 1955 l0 -1445 360 0 360 0 0 571 0 571 98 -4 c90 -3 102 -5
135 -31 73 -55 131 -158 238 -419 116 -285 189 -409 308 -528 123 -122 252
-172 446 -172 55 0 262 4 460 8 l360 9 85 267 85 268 481 0 480 0 88 -270 89
-270 368 0 368 0 -229 678 c-125 372 -345 1021 -487 1442 l-258 765 -370 0
-370 0 -395 -1175 c-368 -1095 -397 -1175 -420 -1181 -44 -12 -116 -9 -161 6
-115 41 -176 117 -304 382 -103 212 -135 264 -204 336 -46 47 -46 48 -21 54
48 13 175 83 242 133 127 96 242 269 284 425 21 81 30 284 15 371 -60 354
-301 575 -695 639 -74 12 -220 15 -763 15 l-673 0 0 -1445z m1138 915 c120
-20 203 -77 246 -169 17 -38 21 -65 21 -156 0 -98 -3 -116 -26 -166 -46 -97
-134 -162 -257 -188 -29 -6 -132 -11 -227 -11 l-175 0 0 350 0 350 178 0 c97
0 206 -5 240 -10z m2296 -257 c17 -162 61 -336 170 -674 l113 -349 -303 0
c-238 0 -303 3 -299 13 2 6 53 163 114 348 82 250 120 380 146 510 19 96 35
184 35 197 0 12 4 22 9 22 4 0 11 -30 15 -67z"/>
<path d="M13900 1955 l0 -1445 295 0 295 0 0 778 c-1 596 -4 814 -15 937 -8
88 -15 167 -14 175 0 8 24 -43 53 -115 89 -216 128 -292 544 -1045 l400 -725
381 -3 381 -2 0 1445 0 1445 -295 0 -295 0 0 -785 c0 -464 4 -845 11 -933 6
-81 9 -163 7 -182 -3 -32 -7 -26 -42 65 -98 248 -175 405 -541 1098 l-390 737
-387 0 -388 0 0 -1445z"/>
<path d="M18950 1955 l0 -1445 360 0 360 0 0 610 0 610 435 0 435 0 0 -610 0
-610 360 0 360 0 0 1445 0 1445 -360 0 -360 0 0 -545 0 -545 -435 0 -435 0 0
545 0 545 -360 0 -360 0 0 -1445z"/>
<path d="M21540 1955 l0 -1445 980 0 980 0 0 270 0 270 -620 0 -620 0 0 330 0
330 505 0 505 0 0 270 0 270 -505 0 -505 0 0 305 0 305 600 0 600 0 0 270 0
270 -960 0 -960 0 0 -1445z"/>
<path d="M23630 1955 l0 -1445 365 0 365 0 0 570 0 570 85 0 c100 0 124 -10
181 -72 58 -63 104 -149 200 -380 100 -240 165 -360 248 -463 141 -174 286
-238 536 -238 115 0 281 20 297 36 2 2 16 120 31 261 l28 257 -30 -8 c-62 -16
-168 -8 -214 15 -105 55 -151 120 -294 412 -74 150 -110 212 -157 267 l-61 73
38 16 c20 9 48 20 62 26 58 23 193 123 258 193 118 127 191 297 207 485 14
162 -30 369 -106 497 -82 136 -238 255 -414 313 -178 58 -202 60 -946 60
l-679 0 0 -1445z m1225 895 c40 -15 75 -38 106 -70 62 -63 84 -127 83 -245 0
-77 -4 -99 -28 -153 -33 -72 -86 -124 -161 -158 -77 -36 -140 -44 -326 -44
l-169 0 0 351 0 351 218 -4 c196 -4 223 -7 277 -28z"/>
</g>
</svg>
